<svg width="206" height="246" viewBox="0 0 206 246" fill="none" xmlns="http://www.w3.org/2000/svg">
<circle cx="18" cy="18" r="17.5" transform="matrix(1 0 0 -1 86 218)" fill="#4BC0DA" stroke="black"/>
<circle cx="18" cy="18" r="17.5" transform="matrix(1 0 0 -1 59 195)" fill="#9C8EDC" stroke="black"/>
<circle cx="131" cy="177" r="17.5" transform="rotate(180 131 177)" fill="#4BC0DA" stroke="black"/>
<path d="M54.9008 230.456C52.3914 232.168 51.7447 235.59 53.4564 238.099C55.168 240.609 58.5898 241.255 61.0992 239.544L54.9008 230.456ZM61.0992 239.544C94.3843 216.84 128.796 204.376 152.148 194.398C157.941 191.923 163.147 189.557 167.433 187.207C171.633 184.903 175.411 182.371 177.974 179.407C180.705 176.248 182.365 172.173 181.132 167.51C180.035 163.358 176.888 159.832 172.979 156.705L166.108 165.295C169.415 167.941 170.311 169.614 170.498 170.321C170.549 170.517 170.736 170.96 169.653 172.213C168.401 173.66 166.024 175.434 162.143 177.562C158.348 179.644 153.547 181.838 147.826 184.283C125.117 193.986 89.3246 206.976 54.9008 230.456L61.0992 239.544Z" fill="black"/>
<path d="M55.4643 231.282C53.4111 232.683 52.882 235.483 54.2825 237.536C55.6829 239.589 58.4826 240.118 60.5357 238.718L55.4643 231.282ZM60.5357 238.718C93.9243 215.943 128.462 203.431 151.755 193.479C157.542 191.006 162.711 188.656 166.952 186.33C171.123 184.042 174.774 181.579 177.218 178.753C179.799 175.768 181.291 172.022 180.166 167.765C179.151 163.927 176.209 160.569 172.355 157.486L166.732 164.514C170.094 167.204 171.195 169.045 171.464 170.066C171.624 170.667 171.643 171.44 170.409 172.867C169.039 174.452 166.534 176.294 162.624 178.439C158.784 180.545 153.947 182.755 148.219 185.202C125.451 194.93 89.7846 207.872 55.4643 231.282L60.5357 238.718Z" fill="#9C8EDC"/>
<path d="M158.141 232.456C160.651 234.168 161.297 237.59 159.586 240.099C157.874 242.609 154.452 243.255 151.943 241.544L158.141 232.456ZM151.943 241.544C118.658 218.84 84.2461 206.376 60.8943 196.398C55.1008 193.923 49.8949 191.557 45.6093 189.207C41.4093 186.903 37.6307 184.371 35.068 181.407C32.337 178.248 30.6769 174.173 31.9098 169.51C33.0074 165.358 36.154 161.832 40.0627 158.705L46.9345 167.295C43.627 169.941 42.7314 171.614 42.5444 172.321C42.4927 172.517 42.3057 172.96 43.3891 174.213C44.6408 175.66 47.0181 177.434 50.8991 179.562C54.6945 181.644 59.4948 183.838 65.2164 186.283C87.9253 195.986 123.717 208.976 158.141 232.456L151.943 241.544Z" fill="black"/>
<path d="M155.042 237C87.3332 190.816 14.6342 186.092 43.4986 163" stroke="#4BC0DA" stroke-width="9" stroke-linecap="round"/>
<path d="M68 95.5C7.99999 68 38.0001 4.00001 82 22" stroke="black" stroke-width="11"/>
<path d="M68 95.5C7.99999 68 38.0001 4.00001 82 22" stroke="#9C8EDC" stroke-width="9"/>
<path d="M137 95.6424C197 68.1424 167 4.14238 123 22.1424" stroke="black" stroke-width="11"/>
<path d="M137 95.6424C197 68.1424 167 4.14238 123 22.1424" stroke="#4BC0DA" stroke-width="9"/>
<circle cx="18" cy="18" r="17.5" transform="matrix(1 0 0 -1 84 147)" fill="#4BC0DA" stroke="black"/>
<circle cx="50" cy="105" r="17.5" fill="#9C8EDC" stroke="black"/>
<circle cx="18" cy="18" r="17.5" transform="matrix(-1 0 0 1 149 63)" fill="#4BC0DA" stroke="black"/>
<circle cx="77" cy="81" r="17.5" fill="#9C8EDC" stroke="black"/>
<circle cx="18" cy="18" r="17.5" transform="matrix(-1 0 0 1 176 87)" fill="#4BC0DA" stroke="black"/>
<circle cx="18" cy="18" r="17.5" transform="matrix(1 0 0 -1 32 171)" fill="#9C8EDC" stroke="black"/>
<circle cx="158" cy="153" r="17.5" transform="rotate(180 158 153)" fill="#4BC0DA" stroke="black"/>
<circle cx="77" cy="105" r="17.5" fill="#9C8EDC" stroke="black"/>
<circle cx="18" cy="18" r="17.5" transform="matrix(-1 0 0 1 149 87)" fill="#4BC0DA" stroke="black"/>
<circle cx="18" cy="18" r="17.5" transform="matrix(1 0 0 -1 59 171)" fill="#9C8EDC" stroke="black"/>
<circle cx="131" cy="153" r="17.5" transform="rotate(180 131 153)" fill="#4BC0DA" stroke="black"/>
<circle cx="104" cy="153" r="17.5" fill="#9C8EDC" stroke="black"/>
<circle cx="131" cy="129" r="17.5" fill="#9C8EDC" stroke="black"/>
<circle cx="18" cy="18" r="17.5" transform="matrix(-1 0 0 1 149 111)" fill="#9C8EDC" stroke="black"/>
<circle cx="104" cy="58" r="17.5" fill="#9C8EDC" stroke="black"/>
<circle cx="23" cy="129" r="17.5" fill="#9C8EDC" stroke="black"/>
<circle cx="104" cy="81" r="17.5" fill="#9C8EDC" stroke="black"/>
<circle cx="50" cy="129" r="17.5" fill="#9C8EDC" stroke="black"/>
<circle cx="18" cy="18" r="17.5" transform="matrix(-1 0 0 1 200 111)" fill="#4BC0DA" stroke="black"/>
<circle cx="18" cy="18" r="17.5" transform="matrix(-1 0 0 1 176 111)" fill="#4BC0DA" stroke="black"/>
<circle cx="18" cy="18" r="17.5" transform="matrix(1 0 0 -1 86 195)" fill="#4BC0DA" stroke="black"/>
<circle cx="18" cy="18" r="17.5" transform="matrix(1 0 0 -1 113 147)" fill="#4BC0DA" stroke="black"/>
<circle cx="104" cy="105" r="17.5" fill="#9C8EDC" stroke="black"/>
<circle cx="77" cy="129" r="17.5" fill="#9C8EDC" stroke="black"/>
<circle cx="18" cy="18" r="17.5" transform="matrix(1 0 0 -1 86 171)" fill="#4BC0DA" stroke="black"/>
<path d="M111.014 25.9829L124.633 27.6325L131.364 24.8823L130.48 19.2346L124.633 13.374L107.825 21.8796L111.014 25.9829Z" fill="#0C0D0D" stroke="#070707" stroke-width="4.4" stroke-linejoin="round"/>
<path d="M110 24C108.667 25.6 106.111 26 105 26" stroke="black" stroke-linecap="round" stroke-linejoin="round"/>
<path d="M110 24C109.231 25.92 105.279 26.3 106 27.5" stroke="black" stroke-linecap="round" stroke-linejoin="round"/>
<path d="M112 25.6257L124.381 27.1257L130.5 24.6257L129.696 19.4914L124.381 14.1634L109.101 21.8953L112 25.6257Z" fill="#4BC0DA" stroke="#4BC0DA" stroke-width="4" stroke-linejoin="round"/>
<ellipse cx="121" cy="21.6257" rx="2" ry="1.5" transform="rotate(-14 121 21.6257)" fill="black"/>
<path d="M98.4219 27.7889L84.8027 29.4385L78.0719 26.6883L78.9562 21.0405L84.8031 15.18L101.611 23.6856L98.4219 27.7889Z" fill="#0C0D0D" stroke="#070707" stroke-width="4.4" stroke-linejoin="round"/>
<path d="M99.4357 25.8059C100.769 27.4059 103.325 27.8059 104.436 27.8059" stroke="black" stroke-linecap="round" stroke-linejoin="round"/>
<path d="M99.4357 25.8059C100.205 27.7259 104.157 28.1059 103.436 29.3059" stroke="black" stroke-linecap="round" stroke-linejoin="round"/>
<path d="M97.4357 27.4317L85.0547 28.9316L78.9357 26.4317L79.7395 21.2973L85.0547 15.9694L100.334 23.7013L97.4357 27.4317Z" fill="#9C8EDC" stroke="#9C8EDC" stroke-width="4" stroke-linejoin="round"/>
<ellipse cx="2" cy="1.5" rx="2" ry="1.5" transform="matrix(-0.970296 -0.241922 -0.241922 0.970296 90.7392 22.46)" fill="black"/>
</svg>
